Coordinates
version=1
nRows=11
nColumns=40
inDegrees=yes

Units are S.I. units (second, meters, Newtons, ...)
Angles are in degrees.

endheader
time	pelvis_tilt	pelvis_list	pelvis_rotation	pelvis_tx	pelvis_ty	pelvis_tz	hip_flexion_r	hip_adduction_r	hip_rotation_r	knee_angle_r	knee_angle_r_beta	ankle_angle_r	subtalar_angle_r	mtp_angle_r	hip_flexion_l	hip_adduction_l	hip_rotation_l	knee_angle_l	knee_angle_l_beta	ankle_angle_l	subtalar_angle_l	mtp_angle_l	lumbar_extension	lumbar_bending	lumbar_rotation	arm_flex_r	arm_add_r	arm_rot_r	elbow_flex_r	pro_sup_r	wrist_flex_r	wrist_dev_r	arm_flex_l	arm_add_l	arm_rot_l	elbow_flex_l	pro_sup_l	wrist_flex_l	wrist_dev_l
     20.65000000	     -3.88861200	     -7.25283705	      3.45419470	      1.03865651	      0.93173138	      0.49904528	     10.40544568	      6.49685067	    -19.84930057	     11.67682144	     11.67682144	      7.69977873	      4.04114041	     -3.38760860	     33.93786559	    -15.07226269	      4.76994924	     67.39704420	     67.39704420	      5.97879767	    -18.54699296	     12.12139932	    -11.54521975	      6.27763314	      3.17671861	     12.70577750	    -17.61587502	     -0.49508755	     58.94186625	     45.13677461	      0.00000000	      0.00000000	      2.79595271	     -8.86279569	     -2.11339326	     54.36941054	     45.74754556	      0.00000000	      0.00000000
     20.66157143	     -3.99965786	     -7.25239954	      3.49072789	      1.03701438	      0.93194140	      0.49983739	      9.72809116	      6.63705148	    -20.16301829	     11.07256208	     11.07256208	      7.82024471	      4.90107354	     -3.60923489	     35.21345544	    -15.00501191	      4.52472861	     65.28565577	     65.28565577	      6.30216644	    -18.50224918	     12.08633454	    -11.56143876	      6.27445956	      3.20172471	     15.41202220	    -17.78958896	      0.02847008	     60.60423983	     45.08691960	      0.00000000	      0.00000000	      1.92519104	     -8.62636328	     -1.88806336	     50.32433818	     45.74653008	      0.00000000	      0.00000000
     20.67314286	     -4.08429119	     -7.23039007	      3.53323240	      1.03534138	      0.93204212	      0.50060235	      9.17186942	      6.75462402	    -20.12040532	     10.73297156	     10.73297156	      8.07506421	      5.07995557	     -3.64917078	     36.25613852	    -14.86584944	      4.29385569	     62.88938488	     62.88938488	      6.50088138	    -18.46503207	     12.16811643	    -11.71145132	      6.24615983	      2.98600662	     18.25815769	    -17.61197175	     -0.06252086	     62.44687598	     45.04480422	      0.00000000	      0.00000000	      0.43772799	     -8.59707646	     -1.62068697	     48.05948507	     45.70476613	      0.00000000	      0.00000000
     20.68471429	     -4.19257731	     -7.27034215	      3.57583425	      1.03372845	      0.93199304	      0.50127717	      8.62171958	      6.92308796	    -20.23376956	     10.33842015	     10.33842015	      8.28374555	      5.49431890	     -3.69571201	     37.15040687	    -14.72935974	      4.15689832	     60.25550343	     60.25550343	      6.64194030	    -18.36665912	     12.11128490	    -11.75309943	      6.33183267	      2.94773965	     20.97500941	    -17.66938764	      0.41095430	     64.22314602	     44.98847037	      0.00000000	      0.00000000	     -0.34175925	     -8.36102782	     -1.35491252	     44.14608399	     45.67358857	      0.00000000	      0.00000000
     20.69628571	     -4.30957286	     -7.24865125	      3.56499891	      1.03211469	      0.93190711	      0.50186669	      8.14434786	      6.99309078	    -20.29537548	     10.08311921	     10.08311921	      8.59477359	      5.91899778	     -3.73131799	     37.82848226	    -14.52544930	      3.97390322	     57.32850489	     57.32850489	      6.55505696	    -18.25314932	     11.91074066	    -11.78568231	      6.33120249	      3.54587453	     23.33474999	    -18.33317284	      1.16488515	     65.87258598	     44.93839791	      0.00000000	      0.00000000	     -0.22546984	     -7.81795233	     -1.22513685	     39.03264104	     45.69345534	      0.00000000	      0.00000000
     20.70785714	     -4.40975950	     -7.21402619	      3.55928514	      1.03059495	      0.93170303	      0.50232244	      7.64880283	      7.06016435	    -20.21662211	      9.82015125	      9.82015125	      8.87934292	      6.11191998	     -3.77590210	     38.34337202	    -14.23628729	      3.90937159	     54.23490333	     54.23490333	      6.59576678	    -18.02878308	     12.13417865	    -11.90732084	      6.30507268	      3.53982287	     25.92829981	    -18.11855972	      1.00286524	     67.60334927	     44.90428240	      0.00000000	      0.00000000	     -1.54034409	     -7.74821083	     -1.08364499	     37.24723815	     45.66648165	      0.00000000	      0.00000000
     20.71942857	     -4.57888848	     -7.25877629	      3.54055751	      1.02908085	      0.93130317	      0.50269761	      7.22844444	      7.18717242	    -20.26960641	      9.54454609	      9.54454609	      9.16618064	      6.51395543	     -3.82901220	     38.80917743	    -14.00749778	      3.94408972	     50.95286403	     50.95286403	      6.48265440	    -17.61563039	     12.02407782	    -11.90999365	      6.35544287	      3.66881044	     28.41907311	    -18.11270828	      1.28574195	     69.39045641	     44.85836333	      0.00000000	      0.00000000	     -2.39813097	     -7.56635065	     -0.88435140	     34.54650714	     45.64393061	      0.00000000	      0.00000000
     20.73100000	     -4.69617337	     -7.20017768	      3.48850284	      1.02773345	      0.93096110	      0.50284914	      6.76433923	      7.19666520	    -20.19295628	      9.34102790	      9.34102790	      9.52096369	      6.71653367	     -3.91754226	     38.99322501	    -13.66031895	      3.97020187	     47.45927697	     47.45927697	      6.47314948	    -17.00586677	     12.10541939	    -11.98371617	      6.30199360	      3.88347705	     30.75912996	    -18.04001315	      1.32955589	     71.01611947	     44.81992312	      0.00000000	      0.00000000	     -3.53954129	     -7.50377391	     -0.74455383	     32.99997778	     45.61541505	      0.00000000	      0.00000000
     20.74257143	     -4.85585419	     -7.19297959	      3.42744860	      1.02644732	      0.93038895	      0.50291761	      6.31972566	      7.25581511	    -20.14503497	      9.08787027	      9.08787027	      9.86764232	      7.01185426	     -4.00737464	     39.13222835	    -13.37362446	      4.07261421	     43.89271628	     43.89271628	      6.47560705	    -16.09006029	     12.06097980	    -11.95747438	      6.32589992	      4.02581506	     33.06863926	    -17.88530215	      1.49865155	     72.83204482	     44.77090015	      0.00000000	      0.00000000	     -4.70775673	     -7.46354120	     -0.57160824	     31.53894112	     45.58058802	      0.00000000	      0.00000000
     20.75414286	     -5.04332841	     -7.20117861	      3.36404179	      1.02524880	      0.92967863	      0.50286706	      5.87932461	      7.32959769	    -20.09397812	      8.79669030	      8.79669030	     10.21173173	      7.35822252	     -4.09100359	     39.20187634	    -13.10641776	      4.20981303	     40.29781807	     40.29781807	      6.47590167	    -14.86989340	     11.92785271	    -11.91255635	      6.34775252	      4.17908382	     35.31380085	    -17.77171359	      1.75464355	     74.77517032	     44.71560486	      0.00000000	      0.00000000	     -5.87882619	     -7.40374670	     -0.36663831	     30.28232521	     45.54001995	      0.00000000	      0.00000000
     20.76571429	     -5.22589573	     -7.15736634	      3.28189150	      1.02421772	      0.92893704	      0.50263446	      5.39072941	      7.34503574	    -20.00274579	      8.46718272	      8.46718272	     10.61717284	      7.66251895	     -4.19377504	     39.12452878	    -12.83962233	      4.20661177	     36.68923737	     36.68923737	      6.45407971	    -13.37691518	     11.97020263	    -11.84061620	      6.32948666	      4.36298597	     37.47880085	    -17.59076312	      1.97269872	     76.69245609	     44.66102634	      0.00000000	      0.00000000	     -7.11540880	     -7.40174111	     -0.17818801	     29.36117495	     45.49756295	      0.00000000	      0.00000000
